        <svg viewBox="0 0 1001 593" fill="none" xmlns="http://www.w3.org/2000/svg">
          <g id="notfound">
            <g id="cosmonaut">
              <circle
                id="Ellipse 1"
                cx="385.146"
                cy="293.426"
                r="65"
                transform="rotate(6.21126 385.146 293.426)"
                stroke="black"
                stroke-width="3"
              />
              <path
                id="Ellipse 3"
                d="M398.214 357.198C407.583 367.08 413.423 379.783 414.826 393.328C416.228 406.874 413.114 420.503 405.969 432.096C398.823 443.688 388.047 452.594 375.316 457.428C362.585 462.262 348.613 462.752 335.574 458.823C322.535 454.894 311.16 446.766 303.219 435.703C295.278 424.64 291.216 411.263 291.665 397.652C292.115 384.042 297.049 370.961 305.702 360.446C314.355 349.93 326.241 342.569 339.51 339.508"
                stroke="black"
                stroke-width="3"
              />
              <path
                id="Vector 1"
                d="M343.804 256.169L344.119 255.8C351.417 247.262 361.2 241.218 372.101 238.512V238.512"
                stroke="black"
              />
              <line id="Line 1" x1="357.303" y1="235.278" x2="364.978" y2="210.966" stroke="black" stroke-width="3" />
              <circle
                id="Ellipse 2"
                cx="366.95"
                cy="206.447"
                r="5.5"
                transform="rotate(6.21126 366.95 206.447)"
                stroke="black"
                stroke-width="3"
              />
              <path
                id="Vector 2"
                d="M391.048 267.961L360.744 262.663C354.802 261.624 349.012 265.158 347.22 270.917L337.869 300.959C336.357 305.816 338.073 311.1 342.15 314.143L368.093 333.5C370.277 335.13 372.951 335.968 375.676 335.876L408.464 334.764C413.565 334.592 417.999 331.211 419.515 326.338L428.852 296.343C430.646 290.577 427.877 284.376 422.385 281.864L393.973 268.869C393.04 268.442 392.057 268.137 391.048 267.961Z"
                stroke="black"
                stroke-width="3"
              />
              <path
                id="Vector 3"
                d="M292.514 389.469L336.929 412.288C345.176 416.526 354.112 419.259 363.319 420.359L409.479 425.876"
                stroke="black"
                stroke-width="3"
              />
              <path
                id="Vector 4"
                d="M302.587 434.497L280.392 505.802C279.371 509.084 279.532 512.621 280.848 515.797L281.028 516.231C281.54 517.466 282.257 518.606 283.147 519.604V519.604C285.927 522.719 290.133 524.153 294.237 523.384L294.394 523.355C296.162 523.024 297.835 522.306 299.294 521.253L299.521 521.088C301.882 519.383 303.627 516.957 304.492 514.176L323.22 454.011"
                stroke="black"
                stroke-width="3"
              />
              <path
                id="Vector 6"
                d="M331.386 330.874L264.344 359.779C261.21 361.13 258.66 363.553 257.149 366.613L256.977 366.962C256.381 368.171 255.991 369.471 255.825 370.809V370.809C255.312 374.923 256.948 379.012 260.157 381.637L260.279 381.737C261.683 382.885 263.323 383.711 265.082 384.154L265.478 384.254C268.157 384.929 270.976 384.806 273.586 383.901L295.572 376.281"
                stroke="black"
                stroke-width="3"
              />
              <path
                id="Vector 7"
                d="M410.18 354.352L448.974 416.2C450.788 419.091 451.512 422.534 451.019 425.911L450.963 426.296C450.768 427.629 450.35 428.921 449.728 430.117V430.117C447.815 433.795 444.148 436.233 440.016 436.573L439.859 436.586C438.051 436.735 436.233 436.484 434.533 435.851L434.15 435.708C431.561 434.743 429.31 433.043 427.674 430.816L413.897 412.065"
                stroke="black"
                stroke-width="3"
              />
              <line id="Line 2" x1="287.727" y1="482.238" x2="311.597" y2="489.668" stroke="black" stroke-width="3" />
              <path
                id="Vector 5"
                d="M377.031 456.098L354.836 527.403C353.815 530.685 351.674 533.506 348.788 535.373L348.394 535.628C347.271 536.355 346.034 536.887 344.735 537.203V537.203C340.678 538.19 336.401 536.983 333.458 534.022L333.346 533.909C332.078 532.632 331.108 531.092 330.505 529.397L330.411 529.132C329.435 526.388 329.375 523.401 330.241 520.62L348.968 460.454"
                stroke="black"
                stroke-width="3"
              />
              <line
                id="Line 3"
                y1="-1.5"
                x2="25"
                y2="-1.5"
                transform="matrix(-0.954815 -0.297201 -0.297201 0.954815 361.725 505.271)"
                stroke="black"
                stroke-width="3"
              />
              <path
                id="Vector 8"
                d="M271.637 383.852V383.852C267.2 390.63 258.405 393.155 251.083 389.691V389.691C246.866 387.695 243.711 383.981 242.425 379.497L242.104 378.378C241.583 376.561 241.414 374.66 241.607 372.779V372.779C242.041 368.567 244.256 364.741 247.695 362.269L248.097 361.98C251.405 359.602 255.501 358.583 259.538 359.135L264.562 359.822"
                stroke="black"
                stroke-width="3"
              />
              <path
                id="Vector 9"
                d="M430.704 433.604V433.604C430.511 441.703 436.319 448.774 444.314 450.077V450.077C448.919 450.827 453.623 449.56 457.228 446.598L458.127 445.858C459.588 444.658 460.805 443.189 461.713 441.531V441.531C463.747 437.816 464.094 433.409 462.666 429.422L462.499 428.957C461.125 425.12 458.331 421.957 454.694 420.12L450.168 417.834"
                stroke="black"
                stroke-width="3"
              />
              <path
                id="Vector 10"
                d="M303.29 343.075L309.531 323.024C311.418 316.959 317.865 313.573 323.929 315.461V315.461"
                stroke="black"
                stroke-width="3"
              />
              <path
                id="Vector 14"
                d="M285.309 422.5L257.066 427.402C235.742 431.102 213.92 430.861 192.684 426.69L188.312 425.831C140.153 416.371 98.0848 387.341 72.1528 345.672L54.309 317"
                stroke="black"
                stroke-width="3"
              />
              <path
                id="Vector 11"
                d="M426.1 379.207L431.45 362.02C433.502 355.428 429.821 348.422 423.23 346.37V346.37"
                stroke="black"
                stroke-width="3"
              />
              <path
                id="Vector 12"
                d="M292.59 377.448L283.971 405.138C279.704 418.848 287.359 433.422 301.069 437.69V437.69"
                stroke="black"
                stroke-width="3"
              />
              <path
                id="Vector 13"
                d="M415.252 414.058L405.593 445.089C401.654 457.745 388.201 464.811 375.545 460.872V460.872"
                stroke="black"
                stroke-width="3"
              />
            </g>
            <g id="particles">
              <g id="Group 7">
                <g id="Group 2">
                  <line id="Line 4" x1="170.58" y1="294.823" x2="190.865" y2="283.982" stroke="black" stroke-width="3" />
                  <path id="Line 5" d="M175.663 280.478L186.504 300.763" stroke="black" stroke-width="3" />
                </g>
                <g id="Group 4">
                  <line id="Line 4_2" x1="192.081" y1="452.28" x2="213.554" y2="460.522" stroke="black" stroke-width="3" />
                  <path id="Line 5_2" d="M206.254 446.735L198.013 468.208" stroke="black" stroke-width="3" />
                </g>
                <g id="Group 5">
                  <line id="Line 4_3" x1="526.807" y1="271.32" x2="549.721" y2="269.326" stroke="black" stroke-width="3" />
                  <path id="Line 5_3" d="M537.12 260.128L539.114 283.042" stroke="black" stroke-width="3" />
                </g>
                <g id="Group 6">
                  <line id="Line 4_4" x1="488.801" y1="429.053" x2="504.654" y2="420.58" stroke="black" stroke-width="3" />
                  <path id="Line 5_4" d="M492.928 418.131L501.4 433.984" stroke="black" stroke-width="3" />
                </g>
                <g id="Group 3">
                  <line id="Line 4_5" x1="313.938" y1="142.543" x2="336.936" y2="142.255" stroke="black" stroke-width="3" />
                  <path id="Line 5_5" d="M325.053 132.147L325.341 155.146" stroke="black" stroke-width="3" />
                </g>
              </g>
              <g id="Group 8">
                <circle id="Ellipse 4" cx="213.309" cy="225.5" r="9" stroke="black" stroke-width="3" />
                <circle id="Ellipse 11" cx="186.809" cy="381" r="9.5" stroke="black" stroke-width="3" />
                <circle id="Ellipse 9" cx="309.809" cy="571" r="7.5" stroke="black" stroke-width="3" />
                <circle id="Ellipse 10" cx="500.809" cy="482" r="6.5" stroke="black" stroke-width="3" />
                <circle id="Ellipse 8" cx="137.309" cy="460.5" r="12" stroke="black" stroke-width="3" />
                <circle id="Ellipse 7" cx="489.809" cy="302" r="7.5" stroke="black" stroke-width="3" />
                <circle id="Ellipse 6" cx="626.309" cy="249.5" r="9" stroke="black" stroke-width="3" />
                <circle id="Ellipse 5" cx="488.809" cy="204" r="6.5" stroke="black" stroke-width="3" />
                <circle id="Ellipse 12" cx="246.809" cy="259" r="3" fill="black" />
                <circle id="Ellipse 21" cx="603.809" cy="318" r="3" fill="black" />
                <circle id="Ellipse 20" cx="597.809" cy="238" r="3" fill="black" />
                <circle id="Ellipse 19" cx="281.809" cy="174" r="3" fill="black" />
                <circle id="Ellipse 18" cx="448.809" cy="193" r="3" fill="black" />
                <circle id="Ellipse 17" cx="226.809" cy="559" r="3" fill="black" />
                <circle id="Ellipse 16" cx="508.809" cy="358" r="3" fill="black" />
                <circle id="Ellipse 15" cx="576.809" cy="449" r="3" fill="black" />
                <circle id="Ellipse 14" cx="281.809" cy="312" r="3" fill="black" />
                <circle id="Ellipse 13" cx="158.809" cy="332" r="3" fill="black" />
              </g>
            </g>
            <g id="planet">
              <circle id="Ellipse 22" cx="781.309" cy="125.5" r="111.5" stroke="black" stroke-width="4" />
              <circle id="Ellipse 23" cx="738.809" cy="76" r="19.5" stroke="black" stroke-width="3" />
              <circle id="Ellipse 24" cx="806.809" cy="181" r="13.5" stroke="black" stroke-width="3" />
              <path
                id="Ellipse 25"
                d="M669.809 116C669.809 116 658.809 116 634.809 118.5C610.809 121 600.309 123.5 600.809 125C601.309 126.5 682.741 138 783.809 138C884.877 138 962.809 126 964.309 125C965.809 124 938.809 120 926.809 119C914.809 118 892.309 116.5 892.309 116.5"
                stroke="black"
                stroke-width="4"
              />
              <path
                id="Vector 15"
                d="M671.809 142C705.943 144.037 769.649 147 777.253 147C784.858 147 853.971 144.037 890.809 142"
                stroke="#B6B6B6"
                stroke-width="4"
              />
              <path
                id="Vector 16"
                d="M673.413 146.814C673.417 147.055 673.511 147.303 673.524 147.536C673.528 147.592 673.556 147.667 673.56 147.731C673.575 147.944 673.59 148.177 673.663 148.378C673.742 148.599 673.705 148.852 673.774 149.072C673.805 149.172 673.827 149.274 673.853 149.375C673.883 149.488 673.896 149.604 673.927 149.715C673.954 149.807 673.95 149.908 673.978 149.997C673.991 150.041 674.005 150.267 674.005 150.122C674.005 150.014 673.968 149.92 673.968 149.812C673.968 149.725 673.921 149.614 673.886 149.535C673.786 149.307 673.734 149.054 673.645 148.821C673.598 148.7 673.543 148.573 673.543 148.442"
                stroke="black"
                stroke-linecap="round"
                stroke-linejoin="round"
              />
              <path
                id="Vector 17"
                d="M673.913 149.256C673.913 149.085 673.859 148.955 673.787 148.812C673.688 148.613 673.624 148.391 673.534 148.191C673.485 148.086 673.442 147.945 673.431 147.831C673.412 147.64 673.305 147.425 673.248 147.243C673.187 147.051 673.174 146.838 673.154 146.638C673.137 146.463 673.096 146.283 673.062 146.111"
                stroke="black"
                stroke-linecap="round"
                stroke-linejoin="round"
              />
              <path
                id="Vector 18"
                d="M889.697 144.428C889.609 144.789 889.592 145.164 889.531 145.531C889.472 145.882 889.372 146.221 889.293 146.566C889.273 146.654 889.276 146.736 889.271 146.824C889.262 146.963 889.226 147.102 889.207 147.24C889.153 147.632 889.115 148.012 889.106 148.409C889.101 148.64 889.105 148.87 889.105 149.101C889.105 149.262 889.097 149.405 889.069 149.56C889.066 149.577 889.111 149.4 889.117 149.378C889.193 149.111 889.289 148.85 889.352 148.579C889.486 147.995 889.485 147.39 889.522 146.796C889.542 146.48 889.501 146.146 889.557 145.834C889.568 145.772 889.586 145.718 889.586 145.655C889.586 145.492 889.553 145.979 889.541 146.142C889.471 147.071 889.461 148.008 889.457 148.94C889.456 149.098 889.457 149.256 889.457 149.414C889.457 149.569 889.472 149.372 889.479 149.326C889.554 148.846 889.744 148.386 889.888 147.924C889.894 147.906 889.974 147.607 889.975 147.682C889.978 147.935 889.975 148.189 889.975 148.442C889.975 148.743 889.972 149.044 889.975 149.345C889.975 149.424 890.02 149.23 890.03 149.201"
                stroke="black"
                stroke-linecap="round"
                stroke-linejoin="round"
              />
              <path
                id="Vector 19"
                d="M888.661 149.774C888.7 149.66 888.736 149.557 888.753 149.441C888.766 149.344 888.746 149.259 888.805 149.178C888.835 149.136 888.873 149.021 888.884 148.969C888.898 148.908 888.937 148.8 888.966 148.747C889.051 148.595 889.038 148.381 889.134 148.23C889.208 148.114 889.203 147.938 889.239 147.803C889.27 147.685 889.29 147.523 889.364 147.425"
                stroke="black"
                stroke-linecap="round"
                stroke-linejoin="round"
              />
              <path
                id="Vector 20"
                d="M889.161 147.887C889.099 147.994 889.066 148.115 889.022 148.229C888.992 148.308 888.941 148.406 888.939 148.489C888.936 148.592 888.876 148.708 888.86 148.814C888.829 149.023 888.84 149.217 888.764 149.419C888.706 149.571 888.623 149.72 888.55 149.867"
                stroke="black"
                stroke-linecap="round"
                stroke-linejoin="round"
              />
              <path
                id="Vector 21"
                d="M890.619 139.807C890.614 140.062 890.558 140.304 890.512 140.554C890.397 141.181 890.312 141.815 890.246 142.449C890.19 142.982 890.138 143.515 890.057 144.044C890.033 144.205 890.004 144.363 890.004 144.526C890.004 144.751 890.075 144.081 890.129 143.863C890.252 143.359 890.352 142.856 890.457 142.348C890.491 142.184 890.526 142.02 890.56 141.856C890.568 141.817 890.591 141.668 890.592 141.808C890.598 142.446 890.562 143.08 890.496 143.714C890.427 144.373 890.328 145.027 890.288 145.689C890.282 145.788 890.271 145.896 890.271 145.998C890.271 146.081 890.29 145.833 890.304 145.751C890.386 145.281 890.553 144.83 890.676 144.37C890.799 143.906 890.983 143.441 891.068 142.968C891.186 142.311 890.925 144.295 890.866 144.96C890.849 145.148 890.836 145.337 890.821 145.525C890.819 145.559 890.806 145.797 890.806 145.592C890.806 145.216 890.822 144.84 890.833 144.464"
                stroke="black"
                stroke-linecap="round"
                stroke-linejoin="round"
              />
              <path
                id="Vector 22"
                d="M890.485 140.048C890.459 140.17 890.432 140.272 890.432 140.396C890.432 140.477 890.437 140.553 890.411 140.631C890.374 140.743 890.378 140.844 890.378 140.964C890.378 141.167 890.378 141.37 890.378 141.574C890.378 141.787 890.406 142.072 890.304 142.263C890.21 142.439 890.203 142.659 890.105 142.837C890.036 142.96 889.995 143.132 889.971 143.271C889.951 143.387 889.904 143.515 889.897 143.628C889.88 143.871 889.773 144.142 889.709 144.377C889.691 144.444 889.68 144.56 889.644 144.618C889.623 144.652 889.602 144.771 889.602 144.731"
                stroke="black"
                stroke-linecap="round"
                stroke-linejoin="round"
              />
              <path
                id="Vector 23"
                d="M890.298 139.834C890.229 140.273 890.218 140.734 890.218 141.178C890.218 141.586 890.146 141.952 890.03 142.344C889.892 142.812 889.709 143.325 889.709 143.815C889.709 144.196 889.682 144.586 889.682 144.972"
                stroke="black"
                stroke-linecap="round"
                stroke-linejoin="round"
              />
              <path
                id="Vector 24"
                d="M671.987 139.354C671.987 139.87 671.973 140.389 672.029 140.903C672.126 141.789 672.379 142.65 672.424 143.544C672.454 144.149 672.434 144.758 672.434 145.363C672.434 145.56 672.435 145.757 672.434 145.954C672.433 146.021 672.445 146.028 672.411 146.011"
                stroke="black"
                stroke-linecap="round"
                stroke-linejoin="round"
              />
              <path
                id="Vector 25"
                d="M671.853 141.789C671.79 142.785 671.83 143.791 671.83 144.79C671.83 145.262 671.827 143.846 671.808 143.375"
                stroke="black"
                stroke-linecap="round"
                stroke-linejoin="round"
              />
              <path
                id="Vector 26"
                d="M671.875 143.688C671.991 144.152 672.131 144.604 672.3 145.051"
                stroke="black"
                stroke-linecap="round"
                stroke-linejoin="round"
              />
              <path
                id="Vector 27"
                d="M672.233 139.599C672.387 140.554 672.553 141.494 672.566 142.465C672.578 143.269 672.568 144.073 672.568 144.877C672.568 145.285 672.59 145.694 672.59 146.101"
                stroke="black"
                stroke-linecap="round"
                stroke-linejoin="round"
              />
              <path
                id="Vector 28"
                d="M672.434 141.253C672.503 141.673 672.604 142.073 672.712 142.481C672.85 143.006 672.908 143.539 672.935 144.08C672.965 144.68 672.995 145.294 673.149 145.877"
                stroke="black"
                stroke-linecap="round"
                stroke-linejoin="round"
              />
            </g>
          </g>
        </svg>