<svg width="136" height="37" viewBox="0 0 136 37" fill="none" xmlns="http://www.w3.org/2000/svg">
<path d="M11.6 19.75C13 19.75 14.0667 19.4333 14.8 18.8C15.5667 18.1333 15.95 17.1333 15.95 15.8C15.95 14.5333 15.55 13.5667 14.75 12.9C13.9833 12.2 12.85 11.85 11.35 11.85C10.8167 11.85 10.3667 11.8667 10 11.9C9.66667 11.9 9.31667 11.9333 8.95 12V19.75H11.6ZM9 35.8C8.63333 35.9 8.05 36 7.25 36.1C6.48333 36.2 5.71667 36.25 4.95 36.25C4.18333 36.25 3.5 36.1833 2.9 36.05C2.33333 35.95 1.85 35.75 1.45 35.45C1.05 35.15 0.75 34.7333 0.55 34.2C0.35 33.6667 0.25 32.9667 0.25 32.1V8.55C0.25 7.85 0.433334 7.31666 0.8 6.95C1.2 6.55 1.73333 6.23333 2.4 6C3.53333 5.6 4.81667 5.31666 6.25 5.15C7.71667 4.95 9.18333 4.85 10.65 4.85C15.25 4.85 18.7667 5.83333 21.2 7.8C23.6333 9.76667 24.85 12.4333 24.85 15.8C24.85 17.4333 24.5833 18.9167 24.05 20.25C23.55 21.55 22.7833 22.6833 21.75 23.65C20.75 24.5833 19.4667 25.3167 17.9 25.85C16.3667 26.35 14.5833 26.6 12.55 26.6H9V35.8ZM36.1762 35.95C35.8428 36.05 35.3095 36.15 34.5762 36.25C33.8762 36.35 33.1428 36.4 32.3762 36.4C31.6428 36.4 30.9762 36.35 30.3762 36.25C29.8095 36.15 29.3262 35.95 28.9262 35.65C28.5262 35.35 28.2095 34.95 27.9762 34.45C27.7762 33.9167 27.6762 33.2333 27.6762 32.4V17.4C27.6762 16.6333 27.8095 15.9833 28.0762 15.45C28.3762 14.8833 28.7928 14.3833 29.3262 13.95C29.8595 13.5167 30.5095 13.1333 31.2762 12.8C32.0762 12.4333 32.9262 12.1167 33.8262 11.85C34.7262 11.5833 35.6595 11.3833 36.6262 11.25C37.5928 11.0833 38.5595 11 39.5262 11C41.1262 11 42.3928 11.3167 43.3262 11.95C44.2595 12.55 44.7262 13.55 44.7262 14.95C44.7262 15.4167 44.6595 15.8833 44.5262 16.35C44.3928 16.7833 44.2262 17.1833 44.0262 17.55C43.3262 17.55 42.6095 17.5833 41.8762 17.65C41.1428 17.7167 40.4262 17.8167 39.7262 17.95C39.0262 18.0833 38.3595 18.2333 37.7262 18.4C37.1262 18.5333 36.6095 18.7 36.1762 18.9V35.95ZM48.0328 4.95C48.0328 3.68333 48.4495 2.61666 49.2828 1.75C50.1495 0.883331 51.2828 0.449999 52.6828 0.449999C54.0828 0.449999 55.1995 0.883331 56.0328 1.75C56.8995 2.61666 57.3328 3.68333 57.3328 4.95C57.3328 6.21667 56.8995 7.28333 56.0328 8.15C55.1995 9.01667 54.0828 9.45 52.6828 9.45C51.2828 9.45 50.1495 9.01667 49.2828 8.15C48.4495 7.28333 48.0328 6.21667 48.0328 4.95ZM56.9328 35.95C56.5661 36.0167 56.0161 36.1 55.2828 36.2C54.5828 36.3333 53.8661 36.4 53.1328 36.4C52.3995 36.4 51.7328 36.35 51.1328 36.25C50.5661 36.15 50.0828 35.95 49.6828 35.65C49.2828 35.35 48.9661 34.95 48.7328 34.45C48.5328 33.9167 48.4328 33.2333 48.4328 32.4V12.05C48.7995 11.9833 49.3328 11.9 50.0328 11.8C50.7661 11.6667 51.4995 11.6 52.2328 11.6C52.9661 11.6 53.6161 11.65 54.1828 11.75C54.7828 11.85 55.2828 12.05 55.6828 12.35C56.0828 12.65 56.3828 13.0667 56.5828 13.6C56.8161 14.1 56.9328 14.7667 56.9328 15.6V35.95ZM70.8441 27.65C70.8441 28.5167 71.1108 29.1333 71.6441 29.5C72.2108 29.8667 72.9941 30.05 73.9941 30.05C74.4941 30.05 75.0108 30.0167 75.5441 29.95C76.0775 29.85 76.5441 29.7333 76.9441 29.6C77.2441 29.9667 77.4941 30.3833 77.6941 30.85C77.9275 31.2833 78.0441 31.8167 78.0441 32.45C78.0441 33.7167 77.5608 34.75 76.5941 35.55C75.6608 36.35 73.9941 36.75 71.5941 36.75C68.6608 36.75 66.3941 36.0833 64.7941 34.75C63.2275 33.4167 62.4441 31.25 62.4441 28.25V6.85C62.8108 6.75 63.3275 6.65 63.9941 6.55C64.6941 6.41666 65.4275 6.35 66.1941 6.35C67.6608 6.35 68.7941 6.61666 69.5941 7.15C70.4275 7.65 70.8441 8.73333 70.8441 10.4V13.6H77.3941C77.5941 13.9667 77.7775 14.4333 77.9441 15C78.1441 15.5333 78.2441 16.1333 78.2441 16.8C78.2441 17.9667 77.9775 18.8167 77.4441 19.35C76.9441 19.85 76.2608 20.1 75.3941 20.1H70.8441V27.65ZM107.221 23.85C107.221 25.9167 106.904 27.7667 106.271 29.4C105.637 31 104.737 32.35 103.571 33.45C102.437 34.55 101.071 35.3833 99.4707 35.95C97.8707 36.5167 96.0874 36.8 94.1207 36.8C92.154 36.8 90.3707 36.5 88.7707 35.9C87.1707 35.3 85.7874 34.45 84.6207 33.35C83.4874 32.2167 82.604 30.85 81.9707 29.25C81.3374 27.65 81.0207 25.85 81.0207 23.85C81.0207 21.8833 81.3374 20.1 81.9707 18.5C82.604 16.9 83.4874 15.55 84.6207 14.45C85.7874 13.3167 87.1707 12.45 88.7707 11.85C90.3707 11.25 92.154 10.95 94.1207 10.95C96.0874 10.95 97.8707 11.2667 99.4707 11.9C101.071 12.5 102.437 13.3667 103.571 14.5C104.737 15.6 105.637 16.95 106.271 18.55C106.904 20.15 107.221 21.9167 107.221 23.85ZM89.7207 23.85C89.7207 25.8833 90.104 27.45 90.8707 28.55C91.6707 29.6167 92.7707 30.15 94.1707 30.15C95.5707 30.15 96.6374 29.6 97.3707 28.5C98.1374 27.4 98.5207 25.85 98.5207 23.85C98.5207 21.85 98.1374 20.3167 97.3707 19.25C96.604 18.15 95.5207 17.6 94.1207 17.6C92.7207 17.6 91.6374 18.15 90.8707 19.25C90.104 20.3167 89.7207 21.85 89.7207 23.85ZM135.118 31.6C134.951 33.1667 134.484 34.3667 133.718 35.2C132.984 36.0333 131.901 36.45 130.468 36.45C129.401 36.45 128.451 36.2 127.618 35.7C126.784 35.1667 125.884 34.2833 124.918 33.05L119.968 26.85V35.95C119.601 36.0167 119.051 36.1 118.318 36.2C117.618 36.3333 116.901 36.4 116.168 36.4C115.434 36.4 114.768 36.35 114.168 36.25C113.601 36.15 113.118 35.95 112.718 35.65C112.318 35.35 112.001 34.95 111.768 34.45C111.568 33.9167 111.468 33.2333 111.468 32.4V3.45C111.834 3.35 112.368 3.25 113.068 3.15C113.801 3.01667 114.534 2.95 115.268 2.95C116.001 2.95 116.651 3 117.218 3.1C117.818 3.2 118.318 3.4 118.718 3.7C119.118 4 119.418 4.41666 119.618 4.95C119.851 5.45 119.968 6.11667 119.968 6.95V20.15L128.568 11.35C130.301 11.35 131.684 11.7333 132.718 12.5C133.784 13.2667 134.318 14.2333 134.318 15.4C134.318 15.9 134.234 16.3667 134.068 16.8C133.901 17.2 133.634 17.6167 133.268 18.05C132.934 18.4833 132.484 18.95 131.918 19.45C131.384 19.9167 130.751 20.4667 130.018 21.1L127.118 23.6L135.118 31.6Z" fill="black"/>
</svg>
