<svg id="Capa_1" enable-background="new 0 0 512 512" height="512" viewBox="0 0 512 512" width="512" xmlns="http://www.w3.org/2000/svg"><g><path d="m199.314 112.451h125.538v30h-125.538z"/><path d="m199.314 239.6h125.538v30h-125.538z"/><path d="m199.314 366.749h125.538v30h-125.538z"/><path d="m397.63 303.2v-303.2h-397.63v512h440c39.149 0 72-30.264 72-67.12v-141.68zm-366.63 178.52v-451.44h336.63v414.6c0 13.071 3.996 26.017 11.318 36.84zm450-36.84c0 20.313-18.393 36.84-41 36.84-21.6 0-42.37-13.059-42.37-36.84v-111.68h83.37z"/><path d="m66.689 172.45h91.58v-90h-91.58zm30-60h31.58v30h-31.58z"/><path d="m66.689 299.6h91.58v-90h-91.58zm30-60h31.58v30h-31.58z"/><path d="m66.689 426.75h91.58v-90h-91.58zm30-60h31.58v30h-31.58z"/></g></svg>